<svg xmlns="http://www.w3.org/2000/svg" width="434.516" height="79.429" viewBox="0 0 434.516 79.429"><defs><style>.a{fill:#fff;}</style></defs><g transform="translate(-3 -4.9)"><g transform="translate(5.053 60.426)"><path class="a" d="M21.681,88.535a5.725,5.725,0,0,1-4.436,2.218c-3.039,0-4.928-2.464-4.928-6.243v-.164c0-3.7,1.971-6.16,4.928-6.16a5.433,5.433,0,0,1,4.271,2.136l.082.082L25.87,76.3l-.164-.082A11,11,0,0,0,17.082,72.6C10.264,72.6,5.5,77.446,5.5,84.346v.411c0,6.9,4.682,11.664,11.335,11.664a11.3,11.3,0,0,0,8.953-3.943l.082-.082-4.189-3.861Z" transform="translate(-5.5 -72.518)"/><path class="a" d="M54.789,81.725H47.971V73.1H41.4V96.017h6.571V87.228h6.818v8.789H61.36V73.1H54.789Z" transform="translate(-11.912 -72.607)"/><path class="a" d="M97.849,80.985v-.164A7,7,0,0,0,95.631,75.4c-1.643-1.561-4.189-2.3-7.475-2.3H78.3v23h6.571V89.035h2.136L91.2,96.017V96.1h7.393L93.5,87.8A7.214,7.214,0,0,0,97.849,80.985ZM84.871,78.357H87.91c2.136,0,3.368.986,3.368,2.793v.082c0,1.807-1.232,2.875-3.368,2.875H84.871Z" transform="translate(-18.503 -72.607)"/><rect class="a" width="6.571" height="22.999" transform="translate(89.039 0.493)"/><path class="a" d="M144.164,81.8c-3.039-1.068-3.861-1.561-3.861-2.546h0c0-.821.821-1.4,2.136-1.4a10.006,10.006,0,0,1,5.668,2.053l.082.082,3.286-4.436.082-.082-.082-.082A14.287,14.287,0,0,0,142.6,72.6c-5.339,0-8.953,2.875-8.953,7.146v.082c0,4.353,3.778,5.914,8.05,7.228,3.039.986,3.532,1.561,3.532,2.3h0c0,.986-.9,1.561-2.464,1.561a10.761,10.761,0,0,1-6.653-2.546l-.082-.082-3.45,4.353-.082.082.082.082a15.934,15.934,0,0,0,10.1,3.368c5.5,0,9.117-2.875,9.117-7.228v-.082C151.885,84.921,148.764,83.2,144.164,81.8Z" transform="translate(-28.183 -72.518)"/><path class="a" d="M165.4,78.521h6.078v17.5h6.571v-17.5h6.16V73.1H165.4Z" transform="translate(-34.06 -72.607)"/><rect class="a" width="6.571" height="22.999" transform="translate(159.514 0.493)"/><path class="a" d="M233.76,72.9h-6.571l-8.707,23-.082.164h6.735l1.4-4.107h7.639l1.479,4.107h6.9L233.76,72.9Zm-1.232,14.128h-4.271l2.136-6.243Z" transform="translate(-43.526 -72.571)"/><path class="a" d="M272.51,84.271,264.46,73.1H258.3V96.017h6.489V84.353l8.378,11.664H279V73.1H272.51Z" transform="translate(-50.652 -72.607)"/><path class="a" d="M330.1,88.517a5.725,5.725,0,0,1-4.436,2.218c-3.039,0-4.928-2.464-4.928-6.243v-.164c0-3.7,1.971-6.16,4.928-6.16a5.433,5.433,0,0,1,4.271,2.136l.082.082,4.189-4.107.082-.082-.082-.082a11,11,0,0,0-8.625-3.614C318.764,72.5,314,77.346,314,84.246v.411c0,6.9,4.682,11.664,11.335,11.664a11.3,11.3,0,0,0,8.953-3.943l.082-.082L330.1,88.517Z" transform="translate(-60.601 -72.5)"/><path class="a" d="M363.189,81.725h-6.818V73.1H349.8V96.017h6.571V87.228h6.818v8.789h6.571V73.1h-6.571Z" transform="translate(-66.995 -72.607)"/><path class="a" d="M400.135,87.046c0,2.546-1.232,3.861-3.532,3.861s-3.532-1.4-3.532-3.943V73H386.5V86.881c0,6.16,3.614,9.528,10.1,9.528,6.571,0,10.185-3.45,10.185-9.61V73.082h-6.653Z" transform="translate(-73.55 -72.589)"/><path class="a" d="M443.049,80.985v-.164a7,7,0,0,0-2.218-5.421c-1.643-1.561-4.189-2.3-7.475-2.3H423.5v23h6.571V89.035h2.136L436.4,96.1h7.393L438.7,87.721A7.026,7.026,0,0,0,443.049,80.985Zm-6.571.246h0c0,1.889-1.232,2.957-3.368,2.957h-3.039v-5.75h3.039C435.246,78.357,436.478,79.425,436.478,81.232Z" transform="translate(-80.159 -72.607)"/><path class="a" d="M474.3,88.517a5.725,5.725,0,0,1-4.436,2.218c-3.039,0-4.928-2.464-4.928-6.243v-.164c0-3.7,1.971-6.16,4.928-6.16a5.433,5.433,0,0,1,4.271,2.136l.082.082,4.189-4.107.082-.082-.082-.082a11,11,0,0,0-8.625-3.614c-6.818,0-11.582,4.846-11.582,11.746v.411c0,6.9,4.682,11.664,11.335,11.664a11.3,11.3,0,0,0,8.953-3.943l.082-.082L474.3,88.517Z" transform="translate(-86.356 -72.5)"/><path class="a" d="M507.389,73.1v8.625h-6.818V73.1H494V96.017h6.571V87.228h6.818v8.789h6.653V73.1Z" transform="translate(-92.751 -72.607)"/></g><g transform="translate(3 4.9)"><path class="a" d="M3,45.512l7.064-8.542c4.189,3.039,8.953,5.175,13.964,5.175,3.532,0,5.339-1.4,5.339-3.368v-.082c0-1.807-1.561-2.957-7.557-4.846C12.035,30.892,5.218,27.77,5.218,19.474V19.31c0-8.378,7.146-14.21,18.317-14.21a30.242,30.242,0,0,1,18.317,5.585L35.2,19.474c-3.532-2.382-7.8-4.189-11.91-4.189-3.039,0-4.682,1.314-4.682,3.039v.082c0,2.053,1.643,3.039,8.132,5.257,9.775,2.793,15.853,6.325,15.853,14.128v.082c0,8.871-7.721,14.374-18.728,14.374A33.23,33.23,0,0,1,3,45.512Z" transform="translate(-3 -4.936)"/><path class="a" d="M60.7,29.213v-.986C60.7,14.51,70.721,4.9,84.52,4.9c13.882,0,23.738,9.528,23.738,23.245v.986c0,13.717-10.021,23.327-23.82,23.327C70.557,52.376,60.7,42.93,60.7,29.213Zm34.088-.164V28.31c0-7.885-4.271-12.732-10.35-12.732S74.171,20.342,74.171,28.31v.739c0,7.885,4.271,12.732,10.35,12.732C90.681,41.78,94.788,36.934,94.788,29.049Z" transform="translate(-13.306 -4.9)"/><path class="a" d="M129.9,33.581V5.9h13.224V33.745c0,5.5,3.039,8.132,7.557,8.132,4.6,0,7.557-2.464,7.557-7.885V5.9h13.307V33.417c0,13.307-8.46,19.138-20.945,19.138S129.9,46.641,129.9,33.581Z" transform="translate(-25.666 -5.079)"/><path class="a" d="M203.649,16.5H191V5.9h38.523V16.5H216.874V51.734H203.649Z" transform="translate(-36.579 -5.079)"/><path class="a" d="M248.8,5.9h13.224V23.313h14.621V5.9h13.307V51.734H276.645V34.074H262.024v17.66H248.8Z" transform="translate(-46.902 -5.079)"/><path class="a" d="M312.4,5.9h35.32V16.25H325.46v7.557H345.5v9.775H325.46v7.885h22.588v10.35H312.4Z" transform="translate(-58.262 -5.079)"/><path class="a" d="M381.453,5.6h13.307L412.83,51.68H398.948l-3.039-8.214h-16.1l-2.957,8.214H363.3Zm11.253,28.42-4.764-13.389L383.178,34.02Z" transform="translate(-67.353 -5.025)"/><path class="a" d="M428.4,45.53l7.064-8.542c4.189,3.039,8.953,5.175,13.964,5.175,3.532,0,5.339-1.4,5.339-3.368v-.082c0-1.807-1.561-2.957-7.557-4.846-9.692-2.957-16.51-6.078-16.51-14.374v-.164c0-8.3,7.146-14.128,18.317-14.128a30.242,30.242,0,0,1,18.317,5.585l-6.653,8.789c-3.532-2.382-7.8-4.189-11.91-4.189-3.039,0-4.682,1.314-4.682,3.039v.082c0,2.053,1.643,3.039,8.132,5.257,9.775,2.793,15.853,6.325,15.853,14.128h0c0,8.871-7.721,14.374-18.728,14.374C441.707,52.266,434.4,50.212,428.4,45.53Z" transform="translate(-78.98 -4.954)"/><path class="a" d="M497.749,16.5H485.1V5.9h38.523V16.5H510.974V51.734H497.749Z" transform="translate(-89.108 -5.079)"/></g></g></svg>