<?xml version="1.0" encoding="utf-8"?>
<!-- Generator: Adobe Illustrator 24.2.1, SVG Export Plug-In . SVG Version: 6.00 Build 0)  -->
<svg version="1.1" id="Layer_1" xmlns="http://www.w3.org/2000/svg" xmlns:xlink="http://www.w3.org/1999/xlink" x="0px" y="0px"
	 viewBox="0 0 576 216" style="enable-background:new 0 0 576 216;" xml:space="preserve">
<g>
	<g>
		<path d="M30,99.3L38.5,89c5,3.7,10.8,6.2,16.8,6.2c4.2,0,6.5-1.7,6.5-4v-0.1c0-2.2-1.9-3.6-9.1-5.8C41,81.7,32.8,77.9,32.8,67.9
			v-0.2c0-10,8.6-17,22.1-17c8.3,0,15.6,2.1,22.1,6.7l-8,10.6c-4.2-2.9-9.4-5.1-14.4-5.1c-3.6,0-5.7,1.6-5.7,3.6v0.1
			c0,2.4,1.9,3.7,9.8,6.3c11.8,3.4,19.1,7.7,19.1,17v0.2c0,10.7-9.3,17.4-22.5,17.4C46,107.4,37.3,104.9,30,99.3z"/>
		<path d="M87.2,79.7v-1.2c0-16.5,12.1-28.1,28.7-28.1c16.7,0,28.6,11.4,28.6,28v1.2c0,16.5-12.1,28.1-28.7,28.1
			C99.1,107.7,87.2,96.2,87.2,79.7z M128.3,79.5v-0.9c0-9.5-5.1-15.4-12.5-15.4s-12.4,5.8-12.4,15.3v0.9c0,9.5,5.1,15.4,12.5,15.4
			C123.4,94.8,128.3,89.1,128.3,79.5z"/>
		<path d="M155.7,84.8V51.4h16V85c0,6.6,3.6,9.8,9.1,9.8c5.6,0,9.1-3,9.1-9.5V51.4H206v33.1c0,16-10.2,23-25.3,23
			S155.7,100.5,155.7,84.8z"/>
		<path d="M231.5,64.2h-15.3V51.4h46.5v12.8h-15.3v42.5h-15.9V64.2z"/>
		<path d="M273.5,51.4h15.9v21H307v-21h16v55.2h-16V85.3h-17.6v21.3h-15.9V51.4z"/>
		<path d="M336.6,51.4h42.6v12.5h-26.9V73h24.2v11.8h-24.2v9.5h27.2v12.5h-43V51.4z"/>
		<path d="M408.8,51.1h16.1l21.8,55.6H430l-3.6-9.9H407l-3.5,9.9h-16.4L408.8,51.1z M422.4,85.3l-5.7-16.2l-5.7,16.2H422.4z"/>
		<path d="M451.5,99.3L460,89c5,3.7,10.8,6.2,16.8,6.2c4.2,0,6.5-1.7,6.5-4v-0.1c0-2.2-1.9-3.6-9.1-5.8
			c-11.7-3.6-19.9-7.3-19.9-17.4v-0.2c0-10,8.6-17,22.1-17c8.3,0,15.6,2.1,22.1,6.7l-8,10.6c-4.2-2.9-9.4-5.1-14.4-5.1
			c-3.6,0-5.7,1.6-5.7,3.6v0.1c0,2.4,1.9,3.7,9.8,6.3c11.8,3.4,19.1,7.7,19.1,17v0.2c0,10.7-9.3,17.4-22.5,17.4
			C467.5,107.4,458.7,104.9,451.5,99.3z"/>
		<path d="M522.9,64.2h-15.3V51.4h46.5v12.8h-15.3v42.5h-15.9V64.2z"/>
	</g>
	<g>
		<g>
			<path d="M129.9,167.2v-33.7h16.6c6.2,0,9.6,3.8,9.6,8.6c0,4.2-2.7,7.1-5.9,7.7c3.6,0.6,6.5,4.1,6.5,8.3c0,5.2-3.5,9.1-9.8,9.1
				H129.9z M150,143.1c0-2.5-1.7-4.4-4.8-4.4h-9.5v8.7h9.5C148.3,147.4,150,145.6,150,143.1z M150.6,157.3c0-2.5-1.8-4.7-5.2-4.7
				h-9.7v9.4h9.7C148.7,162,150.6,160.2,150.6,157.3z"/>
			<path d="M164.9,150.4c0-10.1,7.1-17.4,17.2-17.4s17.2,7.4,17.2,17.4c0,10.1-7.1,17.4-17.2,17.4S164.9,160.4,164.9,150.4z
				 M193.3,150.4c0-7-4.4-12.2-11.2-12.2c-6.8,0-11.2,5.2-11.2,12.2c0,6.9,4.3,12.2,11.2,12.2C188.9,162.6,193.3,157.3,193.3,150.4z
				"/>
			<path d="M207.4,150.4c0-10.1,7.1-17.4,17.2-17.4s17.2,7.4,17.2,17.4c0,10.1-7.1,17.4-17.2,17.4S207.4,160.4,207.4,150.4z
				 M235.8,150.4c0-7-4.4-12.2-11.2-12.2c-6.8,0-11.2,5.2-11.2,12.2c0,6.9,4.3,12.2,11.2,12.2C231.4,162.6,235.8,157.3,235.8,150.4z
				"/>
			<path d="M271.6,167.2L260.2,153l-2.9,3.4v10.8h-5.9v-33.7h5.9v16.1l13.2-16.1h7.3l-13.7,15.9l14.7,17.8H271.6z"/>
			<g>
				<path d="M285.9,162.5l3.3-4.5c2.3,2.5,6,4.7,10.7,4.7c4.9,0,6.8-2.4,6.8-4.6c0-7.1-19.7-2.7-19.7-15.1c0-5.6,4.9-9.9,12.3-9.9
					c5.3,0,9.5,1.7,12.6,4.7l-3.4,4.4c-2.6-2.6-6.2-3.8-9.8-3.8c-3.5,0-5.7,1.7-5.7,4.2c0,6.3,19.6,2.4,19.6,15
					c0,5.6-3.9,10.4-13,10.4C293.4,167.8,288.9,165.6,285.9,162.5z"/>
				<path d="M329.4,167.2v-28.5h-10.2v-5.2h26.3v5.2h-10.2v28.5H329.4z"/>
				<path d="M351.6,150.4c0-10.1,7.1-17.4,17.2-17.4c10.1,0,17.2,7.4,17.2,17.4c0,10.1-7.1,17.4-17.2,17.4
					C358.7,167.8,351.6,160.4,351.6,150.4z M380,150.4c0-7-4.4-12.2-11.2-12.2c-6.8,0-11.2,5.2-11.2,12.2c0,6.9,4.3,12.2,11.2,12.2
					C375.6,162.6,380,157.3,380,150.4z"/>
				<path d="M414.9,167.2l-7.5-12.6h-5.9v12.6h-5.9v-33.7h14.8c6.7,0,11,4.3,11,10.6c0,6-3.9,9.3-8,9.9l8.2,13.2H414.9z M415.4,144
					c0-3.2-2.4-5.4-5.8-5.4h-8.1v10.7h8.1C412.9,149.4,415.4,147.3,415.4,144z"/>
				<path d="M431.2,167.2v-33.7h23.1v5.2h-17.2v8.7h16.8v5.2h-16.8v9.4h17.2v5.2H431.2z"/>
			</g>
		</g>
		<g>
			<path d="M106.5,152.6H69c-0.5,0-0.9-0.4-0.9-0.9V149c0-0.5,0.4-0.9,0.9-0.9h37.6c0.5,0,0.9,0.4,0.9,0.9v2.7
				C107.4,152.2,107,152.6,106.5,152.6z"/>
			<path d="M515.1,152.6h-37.6c-0.5,0-0.9-0.4-0.9-0.9V149c0-0.5,0.4-0.9,0.9-0.9h37.6c0.5,0,0.9,0.4,0.9,0.9v2.7
				C516,152.2,515.6,152.6,515.1,152.6z"/>
		</g>
	</g>
</g>
</svg>
